<svg xmlns="http://www.w3.org/2000/svg" width="340" height="300" viewBox="0 0 340 300"><title>Onion &amp; Tomato Cuts — demo product illustration</title><defs><radialGradient id="bg"><stop stop-color="#fff"/><stop offset="1" stop-color="#f7f9f3"/></radialGradient></defs><rect width="340" height="300" fill="url(#bg)"/><ellipse cx="170" cy="267" rx="80" ry="10" fill="#172e1710"/><g fill="#e64838" stroke="#0000000a" stroke-width="2"><ellipse cx="115" cy="175" rx="48" ry="44"/><ellipse cx="215" cy="173" rx="49" ry="45"/><ellipse cx="165" cy="122" rx="51" ry="45"/><ellipse cx="167" cy="199" rx="49" ry="42"/></g><g fill="#368044"><path d="m165 92 -22 -15 22 5 16-20 -4 23 20 8 -23 2z"/><path d="m114 141 -17-10 22 2 8-13 0 19z"/><path d="m214 141 -20-9 24 0 8-13 0 20z"/></g><ellipse cx="147" cy="106" rx="12" ry="6" fill="#ffffff50"/><rect x="89" y="248" width="162" height="23" rx="11" fill="#eef5e9"/><text x="170" y="264" fill="#377344" font-size="11" font-family="Arial" text-anchor="middle">QuickCuts</text></svg>